# This file uses centimeters as units for non-parametric coordinates.

mtllib barrel.mtl
g default
v 0.799009 1.179313 -0.580514
v 0.305194 1.179313 -0.939292
v -0.305195 1.179313 -0.939292
v -0.799010 1.179313 -0.580514
v -0.987630 1.179313 0.000000
v -0.799009 1.179313 0.580514
v -0.305194 1.179313 0.939292
v 0.305194 1.179313 0.939292
v 0.799009 1.179313 0.580514
v 0.987630 1.179313 -0.000000
v 0.898300 1.189766 -0.652653
v 0.890199 1.179313 -0.646767
v 0.343120 1.189766 -1.056015
v 0.340026 1.179313 -1.046492
v -0.343120 1.189766 -1.056015
v -0.340026 1.179313 -1.046491
v -0.898300 1.189766 -0.652653
v -0.890199 1.179313 -0.646767
v -1.110359 1.189766 0.000000
v -1.100346 1.179313 0.000000
v -0.898300 1.189766 0.652653
v -0.890199 1.179313 0.646767
v -0.343120 1.189766 1.056015
v -0.340026 1.179313 1.046491
v 0.343120 1.189766 1.056015
v 0.340026 1.179313 1.046491
v 0.898300 1.189766 0.652653
v 0.890199 1.179313 0.646767
v 1.110359 1.189766 0.000000
v 1.100346 1.179313 0.000000
v 0.884830 1.359510 -0.642867
v 0.875938 1.369034 -0.636406
v 0.337975 1.359510 -1.040180
v 0.334579 1.369034 -1.029727
v -0.337975 1.359510 -1.040180
v -0.334579 1.369034 -1.029727
v -0.884830 1.359510 -0.642867
v -0.875938 1.369034 -0.636406
v -1.093710 1.359510 0.000000
v -1.082719 1.369034 0.000000
v -0.884830 1.359510 0.642867
v -0.875938 1.369034 0.636406
v -0.337975 1.359510 1.040180
v -0.334579 1.369034 1.029727
v 0.337975 1.359510 1.040180
v 0.334579 1.369034 1.029727
v 0.884830 1.359510 0.642867
v 0.875938 1.369034 0.636406
v 1.093710 1.359510 0.000000
v 1.082719 1.369034 -0.000000
v 0.807515 1.369034 -0.586694
v 0.799009 1.359035 -0.580514
v 0.308443 1.369034 -0.949291
v 0.305194 1.359035 -0.939292
v -0.308443 1.369034 -0.949291
v -0.305195 1.359035 -0.939292
v -0.807515 1.369034 -0.586694
v -0.799010 1.359035 -0.580514
v -0.998143 1.369034 0.000000
v -0.987630 1.359035 0.000000
v -0.807515 1.369034 0.586694
v -0.799009 1.359035 0.580514
v -0.308443 1.369034 0.949291
v -0.305194 1.359035 0.939292
v 0.308443 1.369034 0.949291
v 0.305194 1.359035 0.939292
v 0.807515 1.369034 0.586694
v 0.799009 1.359035 0.580514
v 0.998143 1.369034 -0.000000
v 0.987630 1.359035 -0.000000
v 0.848848 -1.324989 -0.616725
v 0.324231 -1.324989 -0.997881
v -0.324231 -1.324989 -0.997881
v -0.848848 -1.324989 -0.616724
v -1.049234 -1.324989 0.000000
v -0.848848 -1.324989 0.616724
v -0.324231 -1.324989 0.997881
v 0.324231 -1.324989 0.997881
v 0.848848 -1.324989 0.616724
v 1.049234 -1.324989 0.000000
v 0.848848 1.324989 -0.616725
v 0.324231 1.324989 -0.997881
v -0.324231 1.324989 -0.997881
v -0.848848 1.324989 -0.616724
v -1.049234 1.324989 0.000000
v -0.848848 1.324989 0.616724
v -0.324231 1.324989 0.997881
v 0.324231 1.324989 0.997881
v 0.848848 1.324989 0.616724
v 1.049234 1.324989 0.000000
v 0.000000 1.324989 0.000000
v 0.339116 0.529943 1.043692
v 0.339116 -0.529943 1.043692
v -0.339116 -0.529943 1.043692
v -0.339116 0.529943 1.043692
v -0.887817 -0.529943 0.645037
v -0.887817 0.529943 0.645037
v -1.097403 -0.529943 0.000000
v -1.097403 0.529943 0.000000
v -0.887818 -0.529943 -0.645037
v -0.887818 0.529943 -0.645037
v -0.339116 -0.529943 -1.043692
v -0.339116 0.529943 -1.043692
v 0.339116 -0.529943 -1.043692
v 0.339116 0.529943 -1.043692
v 0.887817 -0.529943 -0.645037
v 0.887817 0.529943 -0.645037
v 1.097403 -0.529943 0.000000
v 1.097403 0.529943 0.000000
v 0.887817 -0.529943 0.645037
v 0.887817 0.529943 0.645037
v 0.000000 -1.150206 -0.000000
v 0.000000 -1.339927 -0.000000
v -0.898376 -1.159691 -0.652709
v -0.891026 -1.150206 -0.647368
v -0.343149 -1.159691 -1.056105
v -0.340341 -1.150206 -1.047464
v 0.343149 -1.159691 -1.056105
v 0.340342 -1.150206 -1.047464
v 0.898377 -1.159691 -0.652709
v 0.891026 -1.150206 -0.647368
v 1.110454 -1.159691 0.000000
v 1.101368 -1.150206 0.000000
v 0.898376 -1.159691 0.652709
v 0.891026 -1.150206 0.647368
v 0.343149 -1.159691 1.056105
v 0.340341 -1.150206 1.047464
v -0.343149 -1.159691 1.056105
v -0.340342 -1.150206 1.047464
v -0.898376 -1.159691 0.652709
v -0.891026 -1.150206 0.647368
v -1.110454 -1.159691 0.000000
v -1.101368 -1.150206 0.000000
v -0.884760 -1.331285 -0.642816
v -0.876692 -1.339927 -0.636954
v -0.337948 -1.331285 -1.040098
v -0.334866 -1.339927 -1.030613
v 0.337948 -1.331285 -1.040098
v 0.334867 -1.339927 -1.030613
v 0.884760 -1.331285 -0.642816
v 0.876692 -1.339927 -0.636954
v 1.093624 -1.331285 0.000000
v 1.083650 -1.339927 0.000000
v 0.884760 -1.331285 0.642816
v 0.876692 -1.339927 0.636954
v 0.337948 -1.331285 1.040098
v 0.334866 -1.339927 1.030613
v -0.337948 -1.331285 1.040098
v -0.334866 -1.339927 1.030613
v -0.884760 -1.331285 0.642816
v -0.876692 -1.339927 0.636954
v -1.093624 -1.331285 0.000000
v -1.083650 -1.339927 -0.000000
vt 0.306964 0.550674
vt 0.306667 0.552719
vt 0.213390 0.535017
vt 0.213834 0.533002
vt 0.401169 0.561533
vt 0.401022 0.563594
vt 0.121708 0.510483
vt 0.122236 0.508517
vt 0.028038 0.480341
vt 0.964057 0.484078
vt 0.871052 0.514903
vt 0.870526 0.512931
vt 0.778834 0.538417
vt 0.778383 0.536403
vt 0.685341 0.555002
vt 0.685039 0.552958
vt 0.590864 0.564739
vt 0.590711 0.562678
vt 0.495922 0.567607
vt 0.495920 0.565541
vt 0.310617 0.525710
vt 0.310923 0.523642
vt 0.403161 0.534286
vt 0.403005 0.536371
vt 0.219254 0.508392
vt 0.219701 0.506355
vt 0.128877 0.484627
vt 0.129487 0.482658
vt 0.037578 0.453671
vt 0.954622 0.457380
vt 0.863477 0.489161
vt 0.862883 0.487194
vt 0.772995 0.511804
vt 0.772553 0.509765
vt 0.681409 0.527993
vt 0.681111 0.525924
vt 0.588893 0.537515
vt 0.588746 0.535430
vt 0.495928 0.540313
vt 0.495932 0.538223
vt 0.312830 0.511944
vt 0.313139 0.509875
vt 0.404380 0.520395
vt 0.404221 0.522481
vt 0.222413 0.494846
vt 0.222867 0.492809
vt 0.133122 0.471547
vt 0.133749 0.469556
vt 0.046691 0.441783
vt 0.945579 0.445258
vt 0.859586 0.475878
vt 0.858978 0.473885
vt 0.770218 0.498166
vt 0.769776 0.496125
vt 0.679604 0.514168
vt 0.679309 0.512097
vt 0.588090 0.523595
vt 0.587946 0.521508
vt 0.496135 0.526371
vt 0.496143 0.524280
vt 0.304113 0.568007
vt 0.209738 0.550082
vt 0.117393 0.525424
vt 0.028541 0.497616
vt 0.874736 0.529774
vt 0.781876 0.553593
vt 0.687273 0.570381
vt 0.591672 0.580218
vt 0.495608 0.583105
vt 0.399586 0.579028
vt 0.228738 0.466917
vt 0.317146 0.483597
vt 0.406483 0.493893
vt 0.496323 0.497696
vt 0.586202 0.494981
vt 0.675655 0.485766
vt 0.764219 0.470143
vt 0.851352 0.448469
vt 0.057136 0.414856
vt 0.141826 0.444201
vt 0.963414 0.503137
vt 0.936625 0.420258
vt 0.047890 0.439965
vt 0.038799 0.451803
vt 0.946758 0.447086
vt 0.964209 0.486296
vt 0.028218 0.478134
vt 0.955818 0.459259
vt 0.275614 0.656513
vt 0.333883 0.736712
vt 0.181333 0.786279
vt 0.333883 0.835845
vt 0.275614 0.916045
vt 0.181333 0.946678
vt 0.087053 0.916045
vt 0.028784 0.835845
vt 0.028784 0.736712
vt 0.087053 0.656513
vt 0.181333 0.625879
vt 0.399784 0.285401
vt 0.399784 0.128498
vt 0.497181 0.128498
vt 0.497181 0.285401
vt 0.302369 0.285401
vt 0.302369 0.128498
vt 0.204969 0.285401
vt 0.204969 0.128498
vt 0.107774 0.285401
vt 0.107774 0.128498
vt 0.011087 0.285401
vt 0.011087 0.128498
vt 0.983274 0.128498
vt 0.983274 0.285401
vt 0.886587 0.285401
vt 0.886587 0.128498
vt 0.789393 0.285401
vt 0.789393 0.128498
vt 0.691992 0.285401
vt 0.691992 0.128498
vt 0.594578 0.285401
vt 0.594578 0.128498
vt 0.691992 0.011851
vt 0.789393 0.011851
vt 0.886587 0.011851
vt 0.983274 0.011851
vt 0.011087 0.011851
vt 0.107774 0.011851
vt 0.204969 0.011851
vt 0.302369 0.011851
vt 0.399784 0.011851
vt 0.497181 0.011851
vt 0.594578 0.011851
vt 0.399784 0.402048
vt 0.302369 0.402048
vt 0.204969 0.402048
vt 0.107774 0.402048
vt 0.011087 0.402048
vt 0.983274 0.402048
vt 0.886587 0.402048
vt 0.789393 0.402048
vt 0.691992 0.402048
vt 0.594578 0.402048
vt 0.497181 0.402048
vt 0.989253 0.540753
vt 0.989385 0.542679
vt 0.894475 0.572027
vt 0.893975 0.570238
vt 0.012994 0.544419
vt 0.013132 0.542499
vt 0.108755 0.572183
vt 0.108238 0.573964
vt 0.798393 0.598006
vt 0.797930 0.596210
vt 0.701258 0.620224
vt 0.700417 0.618493
vt 0.700293 0.620420
vt 0.602397 0.637031
vt 0.602126 0.635201
vt 0.502121 0.647955
vt 0.501441 0.646142
vt 0.500759 0.647958
vt 0.400718 0.636975
vt 0.401005 0.635144
vt 0.302578 0.620325
vt 0.302910 0.618500
vt 0.205059 0.599877
vt 0.205019 0.597952
vt 0.204102 0.599652
vt 0.021540 0.518640
vt 0.022554 0.516988
vt 0.116012 0.546239
vt 0.115493 0.548031
vt 0.980243 0.515085
vt 0.981246 0.516737
vt 0.886904 0.546107
vt 0.886372 0.544320
vt 0.791733 0.571859
vt 0.791293 0.570044
vt 0.695660 0.593642
vt 0.695704 0.591705
vt 0.694880 0.591874
vt 0.598250 0.610491
vt 0.597972 0.608641
vt 0.501586 0.620877
vt 0.501595 0.618984
vt 0.404681 0.610163
vt 0.404951 0.608311
vt 0.307464 0.593788
vt 0.307824 0.591955
vt 0.211087 0.573384
vt 0.211937 0.571644
vt 0.211114 0.571452
vt 0.984885 0.848383
vt 0.923721 0.932568
vt 0.824755 0.796354
vt 0.984885 0.744325
vt 0.923720 0.660141
vt 0.824755 0.627985
vt 0.725790 0.660141
vt 0.664626 0.744325
vt 0.664626 0.848383
vt 0.725790 0.932568
vt 0.824755 0.964724
vt 0.401319 0.960272
vt 0.341139 0.877442
vt 0.498692 0.826250
vt 0.341139 0.775058
vt 0.401319 0.692227
vt 0.498692 0.660589
vt 0.596065 0.692227
vt 0.656245 0.775058
vt 0.656245 0.877442
vt 0.596065 0.960272
vt 0.498692 0.991911
vn 0.584214 -0.691759 -0.424456
vn 0.584214 -0.691759 -0.424456
vn 0.223150 -0.691758 -0.686786
vn 0.223150 -0.691758 -0.686786
vn 0.722129 -0.691759 0.000000
vn 0.722129 -0.691759 0.000000
vn -0.223150 -0.691759 -0.686785
vn -0.223151 -0.691759 -0.686785
vn -0.584214 -0.691761 -0.424454
vn -0.584215 -0.691761 -0.424452
vn -0.722127 -0.691760 0.000002
vn -0.722127 -0.691760 0.000002
vn -0.584215 -0.691759 0.424456
vn -0.584216 -0.691759 0.424454
vn -0.223150 -0.691759 0.686785
vn -0.223151 -0.691759 0.686785
vn 0.223150 -0.691757 0.686787
vn 0.223150 -0.691757 0.686786
vn 0.584214 -0.691758 0.424457
vn 0.584216 -0.691758 0.424455
vn 0.529779 0.755766 -0.384905
vn 0.529779 0.755766 -0.384905
vn 0.654842 0.755766 0.000000
vn 0.654842 0.755766 0.000000
vn 0.202359 0.755765 -0.622792
vn 0.202357 0.755765 -0.622792
vn -0.202359 0.755765 -0.622793
vn -0.202359 0.755765 -0.622793
vn -0.529778 0.755767 -0.384905
vn -0.529778 0.755767 -0.384905
vn -0.654842 0.755766 0.000001
vn -0.654842 0.755766 0.000001
vn -0.529780 0.755764 0.384907
vn -0.529780 0.755764 0.384908
vn -0.202358 0.755764 0.622794
vn -0.202358 0.755764 0.622794
vn 0.202358 0.755765 0.622793
vn 0.202359 0.755765 0.622792
vn 0.529780 0.755766 0.384903
vn 0.529780 0.755766 0.384903
vn -0.557528 0.724627 0.405066
vn -0.557527 0.724627 0.405067
vn -0.689141 0.724627 0.000000
vn -0.689141 0.724627 0.000000
vn -0.212957 0.724626 0.655413
vn -0.212957 0.724626 0.655413
vn 0.212957 0.724624 0.655415
vn 0.212958 0.724624 0.655415
vn 0.557534 0.724620 0.405069
vn 0.557534 0.724621 0.405070
vn 0.689148 0.724620 -0.000002
vn 0.689148 0.724621 -0.000002
vn 0.557530 0.724624 -0.405067
vn 0.557529 0.724624 -0.405069
vn 0.212957 0.724622 -0.655417
vn 0.212957 0.724622 -0.655417
vn -0.212958 0.724623 -0.655416
vn -0.212958 0.724623 -0.655416
vn -0.557531 0.724626 -0.405064
vn -0.557529 0.724626 -0.405066
vn 0.805153 0.097617 -0.584978
vn 0.307541 0.097617 -0.946514
vn 0.307541 0.097617 -0.946514
vn 0.805153 0.097617 -0.584978
vn -0.307541 0.097617 -0.946514
vn -0.307541 0.097617 -0.946514
vn -0.805153 0.097616 -0.584978
vn -0.805153 0.097616 -0.584978
vn -0.995224 0.097616 0.000000
vn -0.995224 0.097616 0.000000
vn -0.805153 0.097617 0.584978
vn -0.805153 0.097617 0.584978
vn -0.307541 0.097617 0.946514
vn -0.307541 0.097617 0.946514
vn 0.307541 0.097617 0.946514
vn 0.307541 0.097617 0.946514
vn 0.805153 0.097616 0.584978
vn 0.805153 0.097616 0.584978
vn 0.995224 0.097616 0.000000
vn 0.995224 0.097616 0.000000
vn 0.000000 -1.000000 -0.000000
vn 0.000000 -1.000000 -0.000000
vn 0.000000 -1.000000 -0.000000
vn 0.000000 -1.000000 -0.000000
vn 0.000000 -1.000000 -0.000001
vn 0.000000 -1.000000 -0.000001
vn 0.000000 -1.000000 -0.000000
vn 0.000000 -1.000000 -0.000000
vn 0.000000 -1.000000 0.000000
vn 0.000000 -1.000000 -0.000000
vn 0.000000 -1.000000 0.000000
vn 0.000000 -1.000000 0.000000
vn 0.000000 -1.000000 0.000000
vn 0.000000 -1.000000 0.000000
vn 0.000000 -1.000000 0.000001
vn 0.000000 -1.000000 0.000001
vn 0.000000 -1.000000 0.000000
vn 0.000000 -1.000000 0.000000
vn 0.000000 -1.000000 0.000000
vn 0.000000 -1.000000 0.000000
vn 0.000000 1.000000 -0.000000
vn 0.000000 1.000000 0.000000
vn 0.000000 1.000000 0.000000
vn 0.000000 1.000000 -0.000000
vn 0.000000 1.000000 0.000001
vn 0.000000 1.000000 0.000001
vn 0.000000 1.000000 0.000000
vn 0.000000 1.000000 0.000000
vn 0.000000 1.000000 -0.000000
vn 0.000000 1.000000 -0.000000
vn 0.000000 1.000000 -0.000000
vn 0.000000 1.000000 -0.000000
vn 0.000000 1.000000 -0.000000
vn 0.000000 1.000000 -0.000000
vn 0.000000 1.000000 0.000000
vn 0.000000 1.000000 0.000000
vn 0.000000 1.000000 0.000000
vn 0.000000 1.000000 0.000000
vn 0.000000 1.000000 0.000000
vn 0.000000 1.000000 0.000000
vn -0.309017 0.000000 0.951057
vn -0.809017 0.000000 0.587785
vn -0.809017 0.000000 0.587785
vn -0.309017 0.000000 0.951057
vn -1.000000 0.000000 -0.000000
vn -1.000000 0.000000 -0.000000
vn -0.809017 0.000000 -0.587785
vn -0.809017 0.000000 -0.587785
vn -0.309017 0.000000 -0.951057
vn -0.309017 0.000000 -0.951057
vn 0.309017 0.000000 -0.951057
vn 0.309017 0.000000 -0.951057
vn 0.809017 0.000000 -0.587785
vn 0.809017 0.000000 -0.587785
vn 1.000000 0.000000 -0.000000
vn 1.000000 0.000000 -0.000000
vn 0.809017 0.000000 0.587785
vn 0.809017 0.000000 0.587785
vn 0.309017 0.000000 0.951057
vn 0.309017 0.000000 0.951057
vn 0.000000 1.000000 0.000000
vn 0.000000 1.000000 -0.000000
vn 0.000000 1.000000 0.000000
vn 0.000000 1.000000 0.000000
vn 0.000000 1.000000 -0.000000
vn 0.000000 1.000000 -0.000000
vn 0.000000 1.000000 0.000000
vn 0.000000 1.000000 0.000000
vn 0.000000 1.000000 0.000000
vn 0.000000 1.000000 0.000000
vn 0.000000 1.000000 0.000000
vn 0.308917 0.025454 0.950748
vn 0.308917 -0.025454 0.950748
vn 0.808755 -0.025454 0.587595
vn 0.808755 0.025454 0.587595
vn -0.308917 0.025454 0.950748
vn -0.308917 -0.025454 0.950748
vn -0.808755 0.025454 0.587595
vn -0.808755 -0.025454 0.587595
vn -0.999676 0.025454 0.000000
vn -0.999676 -0.025454 0.000000
vn -0.808755 0.025454 -0.587595
vn -0.808755 -0.025454 -0.587595
vn -0.308917 0.025454 -0.950748
vn -0.308917 -0.025454 -0.950748
vn 0.308917 0.025454 -0.950749
vn 0.308917 -0.025454 -0.950749
vn 0.808755 0.025454 -0.587595
vn 0.808755 -0.025454 -0.587595
vn 0.999676 0.025454 0.000000
vn 0.999676 -0.025454 0.000000
vn 0.807536 -0.060475 -0.586709
vn 0.308451 -0.060475 -0.949316
vn -0.308452 -0.060475 -0.949316
vn -0.807536 -0.060475 -0.586709
vn -0.998170 -0.060475 0.000000
vn -0.807536 -0.060475 0.586710
vn -0.308451 -0.060475 0.949316
vn 0.308452 -0.060475 0.949316
vn 0.807536 -0.060475 0.586709
vn 0.998170 -0.060475 0.000000
vn 0.308452 0.060475 0.949316
vn -0.308451 0.060475 0.949316
vn -0.807536 0.060475 0.586709
vn -0.998170 0.060475 0.000000
vn -0.807536 0.060475 -0.586709
vn -0.308452 0.060475 -0.949316
vn 0.308451 0.060475 -0.949316
vn 0.807536 0.060475 -0.586709
vn 0.998170 0.060475 0.000000
vn 0.807536 0.060475 0.586709
vn -0.584215 0.691756 -0.424459
vn -0.584215 0.691756 -0.424461
vn -0.223150 0.691754 -0.686790
vn -0.223149 0.691754 -0.686790
vn -0.722128 0.691759 -0.000001
vn -0.722128 0.691759 -0.000001
vn 0.223150 0.691759 -0.686785
vn 0.223149 0.691759 -0.686785
vn 0.584213 0.691760 -0.424455
vn 0.584213 0.691760 -0.424456
vn 0.722130 0.691758 0.000000
vn 0.722130 0.691758 0.000000
vn 0.584216 0.691757 0.424458
vn 0.584216 0.691757 0.424457
vn 0.223151 0.691759 0.686785
vn 0.223150 0.691759 0.686785
vn -0.223152 0.691761 0.686782
vn -0.223150 0.691761 0.686783
vn -0.584216 0.691760 0.424452
vn -0.584215 0.691760 0.424454
vn -0.529781 -0.755765 -0.384904
vn -0.529781 -0.755765 -0.384904
vn -0.654845 -0.755764 0.000000
vn -0.654845 -0.755764 0.000000
vn -0.202360 -0.755762 -0.622796
vn -0.202358 -0.755762 -0.622797
vn 0.202359 -0.755758 -0.622801
vn 0.202360 -0.755758 -0.622801
vn 0.529785 -0.755761 -0.384908
vn 0.529783 -0.755760 -0.384910
vn 0.654848 -0.755761 0.000000
vn 0.654848 -0.755761 0.000000
vn 0.529785 -0.755762 0.384905
vn 0.529784 -0.755762 0.384907
vn 0.202361 -0.755762 0.622795
vn 0.202359 -0.755762 0.622795
vn -0.202359 -0.755759 0.622800
vn -0.202359 -0.755759 0.622800
vn -0.529783 -0.755761 0.384910
vn -0.529781 -0.755761 0.384913
vn -0.805153 -0.097616 -0.584978
vn -0.307541 -0.097617 -0.946514
vn -0.307541 -0.097617 -0.946514
vn -0.805153 -0.097616 -0.584978
vn 0.307541 -0.097617 -0.946514
vn 0.307541 -0.097617 -0.946514
vn 0.805153 -0.097617 -0.584978
vn 0.805153 -0.097617 -0.584978
vn 0.995224 -0.097616 -0.000000
vn 0.995224 -0.097616 -0.000000
vn 0.805153 -0.097616 0.584978
vn 0.805153 -0.097616 0.584978
vn 0.307541 -0.097617 0.946514
vn 0.307541 -0.097617 0.946514
vn -0.307541 -0.097617 0.946514
vn -0.307541 -0.097617 0.946514
vn -0.805153 -0.097616 0.584978
vn -0.805153 -0.097616 0.584978
vn -0.995224 -0.097616 0.000000
vn -0.995224 -0.097616 0.000000
vn 0.000000 1.000000 0.000000
vn 0.000000 1.000000 0.000000
vn 0.000000 1.000000 0.000000
vn 0.000000 1.000000 0.000000
vn 0.000000 1.000000 0.000000
vn 0.000000 1.000000 0.000000
vn 0.000000 1.000000 0.000000
vn 0.000000 1.000000 -0.000000
vn 0.000000 1.000000 0.000000
vn 0.000000 1.000000 0.000000
vn 0.000000 1.000000 0.000000
vn 0.000000 -1.000000 -0.000000
vn 0.000000 -1.000000 -0.000000
vn 0.000000 -1.000000 -0.000000
vn 0.000000 -1.000000 0.000000
vn 0.000000 -1.000000 0.000000
vn 0.000000 -1.000000 0.000000
vn 0.000000 -1.000000 -0.000000
vn 0.000000 -1.000000 -0.000000
vn 0.000000 -1.000000 0.000000
vn 0.000000 -1.000000 0.000000
vn 0.000000 -1.000000 0.000000
s 1
g Barrel
usemtl initialShadingGroup
f 11/1/1 12/2/2 14/3/3 13/4/4
f 12/2/2 11/1/1 29/5/5 30/6/6
f 13/4/4 14/3/3 16/7/7 15/8/8
f 15/8/8 16/7/7 18/9/9 17/87/10
f 17/10/10 18/86/9 20/11/11 19/12/12
f 19/12/12 20/11/11 22/13/13 21/14/14
f 21/14/14 22/13/13 24/15/15 23/16/16
f 23/16/16 24/15/15 26/17/17 25/18/18
f 25/18/18 26/17/17 28/19/19 27/20/20
f 27/20/20 28/19/19 30/6/6 29/5/5
s 2
f 31/21/21 32/22/22 50/23/23 49/24/24
f 32/22/22 31/21/21 33/25/25 34/26/26
f 34/26/26 33/25/25 35/27/27 36/28/28
f 36/28/28 35/27/27 37/29/29 38/84/30
f 38/30/30 37/88/29 39/31/31 40/32/32
f 40/32/32 39/31/31 41/33/33 42/34/34
f 42/34/34 41/33/33 43/35/35 44/36/36
f 44/36/36 43/35/35 45/37/37 46/38/38
f 46/38/38 45/37/37 47/39/39 48/40/40
f 48/40/40 47/39/39 49/24/24 50/23/23
s 3
f 51/41/41 52/42/42 70/43/43 69/44/44
f 52/42/42 51/41/41 53/45/45 54/46/46
f 54/46/46 53/45/45 55/47/47 56/48/48
f 56/48/48 55/47/47 57/49/49 58/83/50
f 58/50/50 57/85/49 59/51/51 60/52/52
f 60/52/52 59/51/51 61/53/53 62/54/54
f 62/54/54 61/53/53 63/55/55 64/56/56
f 64/56/56 63/55/55 65/57/57 66/58/58
f 66/58/58 65/57/57 67/59/59 68/60/60
f 68/60/60 67/59/59 69/44/44 70/43/43
s 4
f 11/1/61 13/4/62 33/25/63 31/21/64
f 13/4/62 15/8/65 35/27/66 33/25/63
f 15/8/65 17/87/67 37/29/68 35/27/66
f 17/10/67 19/12/69 39/31/70 37/88/68
f 19/12/69 21/14/71 41/33/72 39/31/70
f 21/14/71 23/16/73 43/35/74 41/33/72
f 23/16/73 25/18/75 45/37/76 43/35/74
f 25/18/75 27/20/77 47/39/78 45/37/76
f 27/20/77 29/5/79 49/24/80 47/39/78
f 29/5/79 11/1/61 31/21/64 49/24/80
s 5
f 14/3/81 12/2/82 1/61/83 2/62/84
f 16/7/85 14/3/81 2/62/84 3/63/86
f 18/9/87 16/7/85 3/63/86 4/64/88
f 20/11/89 18/86/87 4/81/88 5/65/90
f 22/13/91 20/11/89 5/65/90 6/66/92
f 24/15/93 22/13/91 6/66/92 7/67/94
f 26/17/95 24/15/93 7/67/94 8/68/96
f 28/19/97 26/17/95 8/68/96 9/69/98
f 30/6/99 28/19/97 9/69/98 10/70/100
f 12/2/82 30/6/99 10/70/100 1/61/83
s 6
f 32/22/101 34/26/102 53/45/103 51/41/104
f 34/26/102 36/28/105 55/47/106 53/45/103
f 36/28/105 38/84/107 57/49/108 55/47/106
f 38/30/107 40/32/109 59/51/110 57/85/108
f 40/32/109 42/34/111 61/53/112 59/51/110
f 42/34/111 44/36/113 63/55/114 61/53/112
f 44/36/113 46/38/115 65/57/116 63/55/114
f 46/38/115 48/40/117 67/59/118 65/57/116
f 48/40/117 50/23/119 69/44/120 67/59/118
f 50/23/119 32/22/101 51/41/104 69/44/120
s 7
f 2/71/121 1/72/122 52/42/123 54/46/124
f 1/72/122 10/73/125 70/43/126 52/42/123
f 10/73/125 9/74/127 68/60/128 70/43/126
f 9/74/127 8/75/129 66/58/130 68/60/128
f 8/75/129 7/76/131 64/56/132 66/58/130
f 7/76/131 6/77/133 62/54/134 64/56/132
f 6/77/133 5/78/135 60/52/136 62/54/134
f 5/78/135 4/82/137 58/50/138 60/52/136
f 4/79/137 3/80/139 56/48/140 58/83/138
f 3/80/139 2/71/121 54/46/124 56/48/140
s 8
f 81/89/141 82/90/142 91/91/143
f 82/90/142 83/92/144 91/91/143
f 83/92/144 84/93/145 91/91/143
f 84/93/145 85/94/146 91/91/143
f 85/94/146 86/95/147 91/91/143
f 86/95/147 87/96/148 91/91/143
f 87/96/148 88/97/149 91/91/143
f 88/97/149 89/98/150 91/91/143
f 89/98/150 90/99/151 91/91/143
f 90/99/151 81/89/141 91/91/143
s 9
f 92/100/152 93/101/153 110/102/154 111/103/155
f 93/101/153 92/100/152 95/104/156 94/105/157
f 94/105/157 95/104/156 97/106/158 96/107/159
f 96/107/159 97/106/158 99/108/160 98/109/161
f 98/109/161 99/108/160 101/110/162 100/111/163
f 100/112/163 101/113/162 103/114/164 102/115/165
f 102/115/165 103/114/164 105/116/166 104/117/167
f 104/117/167 105/116/166 107/118/168 106/119/169
f 106/119/169 107/118/168 109/120/170 108/121/171
f 108/121/171 109/120/170 111/103/155 110/102/154
f 71/122/172 72/123/173 104/117/167 106/119/169
f 72/123/173 73/124/174 102/115/165 104/117/167
f 73/124/174 74/125/175 100/112/163 102/115/165
f 74/126/175 75/127/176 98/109/161 100/111/163
f 75/127/176 76/128/177 96/107/159 98/109/161
f 76/128/177 77/129/178 94/105/157 96/107/159
f 77/129/178 78/130/179 93/101/153 94/105/157
f 78/130/179 79/131/180 110/102/154 93/101/153
f 79/131/180 80/132/181 108/121/171 110/102/154
f 80/132/181 71/122/172 106/119/169 108/121/171
f 95/104/156 92/100/152 88/133/182 87/134/183
f 97/106/158 95/104/156 87/134/183 86/135/184
f 99/108/160 97/106/158 86/135/184 85/136/185
f 101/110/162 99/108/160 85/136/185 84/137/186
f 103/114/164 101/113/162 84/138/186 83/139/187
f 105/116/166 103/114/164 83/139/187 82/140/188
f 107/118/168 105/116/166 82/140/188 81/141/189
f 109/120/170 107/118/168 81/141/189 90/142/190
f 111/103/155 109/120/170 90/142/190 89/143/191
f 92/100/152 111/103/155 89/143/191 88/133/182
s 10
f 114/144/192 115/145/193 117/146/194 116/147/195
f 115/148/193 114/149/192 132/150/196 133/151/197
f 116/147/195 117/146/194 119/152/198 118/153/199
f 118/153/199 119/152/198 121/154/200 120/155/201
f 120/155/201 121/156/200 123/157/202 122/158/203
f 122/158/203 123/157/202 125/159/204 124/160/205
f 124/160/205 125/161/204 127/162/206 126/163/207
f 126/163/207 127/162/206 129/164/208 128/165/209
f 128/165/209 129/164/208 131/166/210 130/167/211
f 130/167/211 131/168/210 133/151/197 132/150/196
s 11
f 134/169/212 135/170/213 153/171/214 152/172/215
f 135/173/213 134/174/212 136/175/216 137/176/217
f 137/176/217 136/175/216 138/177/218 139/178/219
f 139/178/219 138/177/218 140/179/220 141/180/221
f 141/181/221 140/179/220 142/182/222 143/183/223
f 143/183/223 142/182/222 144/184/224 145/185/225
f 145/185/225 144/184/224 146/186/226 147/187/227
f 147/187/227 146/186/226 148/188/228 149/189/229
f 149/189/229 148/188/228 150/190/230 151/191/231
f 151/192/231 150/190/230 152/172/215 153/171/214
s 12
f 114/144/232 116/147/233 136/175/234 134/174/235
f 116/147/233 118/153/236 138/177/237 136/175/234
f 118/153/236 120/155/238 140/179/239 138/177/237
f 120/155/238 122/158/240 142/182/241 140/179/239
f 122/158/240 124/160/242 144/184/243 142/182/241
f 124/160/242 126/163/244 146/186/245 144/184/243
f 126/163/244 128/165/246 148/188/247 146/186/245
f 128/165/246 130/167/248 150/190/249 148/188/247
f 130/167/248 132/150/250 152/172/251 150/190/249
f 132/150/250 114/149/232 134/169/235 152/172/251
s 13
f 117/193/252 115/194/253 112/195/254
f 119/196/255 117/193/252 112/195/254
f 121/197/256 119/196/255 112/195/254
f 123/198/257 121/197/256 112/195/254
f 125/199/258 123/198/257 112/195/254
f 127/200/259 125/199/258 112/195/254
f 129/201/260 127/200/259 112/195/254
f 131/202/261 129/201/260 112/195/254
f 133/203/262 131/202/261 112/195/254
f 115/194/253 133/203/262 112/195/254
s 14
f 135/204/263 137/205/264 113/206/265
f 137/205/264 139/207/266 113/206/265
f 139/207/266 141/208/267 113/206/265
f 141/208/267 143/209/268 113/206/265
f 143/209/268 145/210/269 113/206/265
f 145/210/269 147/211/270 113/206/265
f 147/211/270 149/212/271 113/206/265
f 149/212/271 151/213/272 113/206/265
f 151/213/272 153/214/273 113/206/265
f 153/214/273 135/204/263 113/206/265
